<svg width="126" height="47" viewBox="0 0 126 47" fill="none" xmlns="http://www.w3.org/2000/svg">
<path d="M17.92 32V15.2H28.264V17.024H19.936V22.64H27.592V24.464H19.936V30.176H28.384V32H17.92ZM34.5154 32.336C33.3794 32.336 32.3554 32.096 31.4434 31.616C30.5474 31.12 29.8354 30.416 29.3074 29.504C28.7954 28.592 28.5394 27.512 28.5394 26.264V26C28.5394 24.736 28.7954 23.656 29.3074 22.76C29.8354 21.848 30.5474 21.152 31.4434 20.672C32.3554 20.176 33.3794 19.928 34.5154 19.928C35.6354 19.928 36.5874 20.136 37.3714 20.552C38.1714 20.968 38.7954 21.52 39.2434 22.208C39.7074 22.896 40.0034 23.632 40.1314 24.416L38.2834 24.8C38.2034 24.224 38.0114 23.696 37.7074 23.216C37.4194 22.736 37.0114 22.352 36.4834 22.064C35.9554 21.776 35.3074 21.632 34.5394 21.632C33.7554 21.632 33.0514 21.808 32.4274 22.16C31.8194 22.512 31.3314 23.016 30.9634 23.672C30.6114 24.328 30.4354 25.112 30.4354 26.024V26.24C30.4354 27.152 30.6114 27.936 30.9634 28.592C31.3314 29.248 31.8194 29.752 32.4274 30.104C33.0514 30.456 33.7554 30.632 34.5394 30.632C35.7074 30.632 36.5954 30.328 37.2034 29.72C37.8274 29.112 38.2114 28.36 38.3554 27.464L40.2274 27.872C40.0514 28.64 39.7314 29.368 39.2674 30.056C38.8034 30.744 38.1714 31.296 37.3714 31.712C36.5874 32.128 35.6354 32.336 34.5154 32.336ZM41.0592 32V15.2H42.9552V22.136H43.2912C43.4512 21.784 43.6912 21.456 44.0112 21.152C44.3472 20.832 44.7712 20.568 45.2832 20.36C45.8112 20.152 46.4752 20.048 47.2752 20.048C48.1552 20.048 48.9392 20.24 49.6272 20.624C50.3312 20.992 50.8912 21.536 51.3072 22.256C51.7232 22.96 51.9312 23.84 51.9312 24.896V32H50.0352V25.04C50.0352 23.872 49.7392 23.024 49.1472 22.496C48.5712 21.968 47.7872 21.704 46.7952 21.704C45.6592 21.704 44.7312 22.072 44.0112 22.808C43.3072 23.544 42.9552 24.64 42.9552 26.096V32H41.0592ZM58.8019 32.336C57.6179 32.336 56.5699 32.088 55.6579 31.592C54.7619 31.096 54.0579 30.4 53.5459 29.504C53.0499 28.592 52.8019 27.52 52.8019 26.288V25.976C52.8019 24.76 53.0499 23.696 53.5459 22.784C54.0579 21.872 54.7619 21.168 55.6579 20.672C56.5699 20.176 57.6179 19.928 58.8019 19.928C59.9859 19.928 61.0259 20.176 61.9219 20.672C62.8339 21.168 63.5379 21.872 64.0339 22.784C64.5459 23.696 64.8019 24.76 64.8019 25.976V26.288C64.8019 27.52 64.5459 28.592 64.0339 29.504C63.5379 30.4 62.8339 31.096 61.9219 31.592C61.0259 32.088 59.9859 32.336 58.8019 32.336ZM58.8019 30.632C60.0499 30.632 61.0419 30.24 61.7779 29.456C62.5299 28.656 62.9059 27.584 62.9059 26.24V26.024C62.9059 24.68 62.5299 23.616 61.7779 22.832C61.0419 22.032 60.0499 21.632 58.8019 21.632C57.5699 21.632 56.5779 22.032 55.8259 22.832C55.0739 23.616 54.6979 24.68 54.6979 26.024V26.24C54.6979 27.584 55.0739 28.656 55.8259 29.456C56.5779 30.24 57.5699 30.632 58.8019 30.632Z" fill="#36454F"/>
<path d="M65.7419 32V15.2H69.5819L74.0459 30.728H74.3579L78.8219 15.2H82.6619V32H80.7179V16.52H80.3819L75.9419 32H72.4619L68.0219 16.52H67.6859V32H65.7419ZM89.5555 32.336C88.3715 32.336 87.3315 32.088 86.4355 31.592C85.5395 31.08 84.8435 30.368 84.3475 29.456C83.8515 28.544 83.6035 27.488 83.6035 26.288V26C83.6035 24.784 83.8515 23.72 84.3475 22.808C84.8435 21.896 85.5315 21.192 86.4115 20.696C87.2915 20.184 88.2995 19.928 89.4355 19.928C90.5395 19.928 91.5155 20.168 92.3635 20.648C93.2115 21.112 93.8755 21.784 94.3555 22.664C94.8355 23.544 95.0755 24.576 95.0755 25.76V26.624H85.4995C85.5475 27.888 85.9555 28.88 86.7235 29.6C87.4915 30.304 88.4515 30.656 89.6035 30.656C90.6115 30.656 91.3875 30.424 91.9315 29.96C92.4755 29.496 92.8915 28.944 93.1795 28.304L94.8115 29.096C94.5715 29.592 94.2355 30.088 93.8035 30.584C93.3875 31.08 92.8355 31.496 92.1475 31.832C91.4755 32.168 90.6115 32.336 89.5555 32.336ZM85.5235 25.064H93.1555C93.0915 23.976 92.7155 23.128 92.0275 22.52C91.3555 21.912 90.4915 21.608 89.4355 21.608C88.3635 21.608 87.4835 21.912 86.7955 22.52C86.1075 23.128 85.6835 23.976 85.5235 25.064ZM100.951 32.336C99.9426 32.336 99.0146 32.096 98.1666 31.616C97.3186 31.136 96.6466 30.44 96.1506 29.528C95.6546 28.616 95.4066 27.536 95.4066 26.288V25.976C95.4066 24.728 95.6546 23.656 96.1506 22.76C96.6466 21.848 97.3106 21.152 98.1426 20.672C98.9906 20.176 99.9266 19.928 100.951 19.928C101.767 19.928 102.455 20.04 103.015 20.264C103.591 20.472 104.055 20.744 104.407 21.08C104.759 21.4 105.031 21.744 105.223 22.112H105.559V15.2H107.455V32H105.607V30.056H105.271C104.951 30.648 104.455 31.176 103.783 31.64C103.111 32.104 102.167 32.336 100.951 32.336ZM101.455 30.656C102.671 30.656 103.655 30.272 104.407 29.504C105.175 28.72 105.559 27.632 105.559 26.24V26.024C105.559 24.632 105.175 23.552 104.407 22.784C103.655 22 102.671 21.608 101.455 21.608C100.255 21.608 99.2626 22 98.4786 22.784C97.7106 23.552 97.3266 24.632 97.3266 26.024V26.24C97.3266 27.632 97.7106 28.72 98.4786 29.504C99.2626 30.272 100.255 30.656 101.455 30.656Z" fill="#FF7F50"/>
</svg>
