<?xml version="1.0" encoding="UTF-8" standalone="no" ?>
<!DOCTYPE svg PUBLIC "-//W3C//DTD SVG 1.1//EN" "http://www.w3.org/Graphics/SVG/1.1/DTD/svg11.dtd">
<svg xmlns="http://www.w3.org/2000/svg" xmlns:xlink="http://www.w3.org/1999/xlink" version="1.1" width="1280" height="1024" viewBox="0 0 1280 1024" xml:space="preserve">
<desc>Created with Fabric.js 5.3.0</desc>
<defs>
</defs>
<g transform="matrix(1 0 0 1 640 512)" id="background-logo"  >
<rect style="stroke: none; stroke-width: 0; stroke-dasharray: none; stroke-linecap: butt; stroke-dashoffset: 0; stroke-linejoin: miter; stroke-miterlimit: 4; fill: rgb(255,255,255); fill-opacity: 0; fill-rule: nonzero; opacity: 1;"  paint-order="stroke"  x="-640" y="-512" rx="0" ry="0" width="1280" height="1024" />
</g>
<g transform="matrix(1.064483020924572 0 0 0.9035864075784251 398.9577912418806 507.61357916327665)" id="logo-logo"  >
<g style=""  paint-order="stroke"   >
		<g transform="matrix(0.22765240283859398 0 0 -0.22765240283859406 4.4608152768973355 -42.23532185419822)"  >
<path style="stroke: none; stroke-width: 1; stroke-dasharray: none; stroke-linecap: butt; stroke-dashoffset: 0; stroke-linejoin: miter; stroke-miterlimit: 4; fill: rgb(54,69,79); fill-rule: nonzero; opacity: 1;"  paint-order="stroke"  transform=" translate(-989.3535, -651.8965000000001)" d="M 989.355 573.563 C 946.0740000000001 573.563 911.047 608.645 911.047 651.891 C 911.047 695.18 946.0740000000001 730.23 989.355 730.23 C 1032.6200000000001 730.23 1067.66 695.1800000000001 1067.66 651.8910000000001 C 1067.66 608.6450000000001 1032.6200000000001 573.5630000000001 989.355 573.5630000000001" stroke-linecap="round" />
</g>
		<g transform="matrix(0.22765240283859398 0 0 -0.22765240283859406 -33.719338334170516 -60.019299911546284)"  >
<path style="stroke: none; stroke-width: 1; stroke-dasharray: none; stroke-linecap: butt; stroke-dashoffset: 0; stroke-linejoin: miter; stroke-miterlimit: 4; fill: rgb(255,99,71); fill-rule: nonzero; opacity: 1;"  paint-order="stroke"  transform=" translate(-821.641, -730.0155)" d="M 821.727 730.23 C 821.688 730.082 821.621 729.938 821.555 729.801 C 821.555 729.801 821.5659999999999 729.855 821.5659999999999 729.883 C 821.637 729.988 821.6759999999999 730.105 821.7269999999999 730.23" stroke-linecap="round" />
</g>
		<g transform="matrix(0.22765240283859398 0 0 -0.22765240283859406 -4.712756584057274 -65.85380735252994)"  >
<path style="stroke: none; stroke-width: 1; stroke-dasharray: none; stroke-linecap: butt; stroke-dashoffset: 0; stroke-linejoin: miter; stroke-miterlimit: 4; fill: rgb(255,99,71); fill-rule: nonzero; opacity: 1;"  paint-order="stroke"  transform=" translate(-949.0571018659608, -755.6445176085701)" d="M 747.059 789.742 C 777.1949999999999 877.805 843.355 930.02 941.477 932.66 C 1078.06 936.3439999999999 1156.3 814.9019999999999 1167.01 779.3589999999999 C 1158.47 805.43 1077.48 861.1949999999999 983.7339999999999 865.039 C 870.406 869.691 731.4259999999999 773.43 754.8789999999999 578.547 C 721.5779999999999 651.195 727.406 732.297 747.0589999999999 789.742" stroke-linecap="round" />
</g>
		<g transform="matrix(0.22765240283859398 0 0 -0.22765240283859406 27.83259783703346 68.41000636643639)"  >
<path style="stroke: none; stroke-width: 1; stroke-dasharray: none; stroke-linecap: butt; stroke-dashoffset: 0; stroke-linejoin: miter; stroke-miterlimit: 4; fill: rgb(54,69,79); fill-rule: nonzero; opacity: 1;"  paint-order="stroke"  transform=" translate(-1092.017835050778, -165.869)" d="M 1005.57 265.527 C 1180.31 117.551 1161 25.5078 1150.45 0 C 1204.66 108.281 1177.94 224.766 1089.81 331.738 C 1076.21 319.855 1061.74 308.223 1046.36 296.93399999999997 C 1032 286.39799999999997 1018.4399999999999 275.92999999999995 1005.5699999999999 265.527" stroke-linecap="round" />
</g>
		<g transform="matrix(0.22765240283859398 0 0 -0.22765240283859406 -21.285035742128684 -24.48105243542048)"  >
<path style="stroke: none; stroke-width: 1; stroke-dasharray: none; stroke-linecap: butt; stroke-dashoffset: 0; stroke-linejoin: miter; stroke-miterlimit: 4; fill: rgb(54,69,79); fill-rule: nonzero; opacity: 1;"  paint-order="stroke"  transform=" translate(-876.2606852613833, -573.908)" d="M 885.137 363.074 C 922.0899999999999 398.645 956.6719999999999 429.16 974.223 444.59000000000003 C 751.141 656.879 851.57 784.742 851.57 784.742 C 737.844 692.527 762.242 479.895 885.137 363.074" stroke-linecap="round" />
</g>
		<g transform="matrix(0.22765240283859398 0 0 -0.22765240283859406 7.1287195435626245 19.40776257127777)"  >
<path style="stroke: none; stroke-width: 1; stroke-dasharray: none; stroke-linecap: butt; stroke-dashoffset: 0; stroke-linejoin: miter; stroke-miterlimit: 4; fill: rgb(255,99,71); fill-rule: nonzero; opacity: 1;"  paint-order="stroke"  transform=" translate(-1001.0727009985366, -381.11928149999994)" d="M 1034.19 313.516 C 1010.2700000000001 295.957 989.07 279.063 970.25 262.84400000000005 L 970.25 262.85900000000004 C 796.461 115.684 811.031 26.4844 821.566 0.398438 L 821.566 0.351563 C 767.656 108.43 794.297 224.648 882.117 331.426 C 882.211 331.52299999999997 882.309 331.609 882.414 331.719 C 937.2189999999999 385.84 992.074 432.605 999.145 439.15999999999997 C 1230.8899999999999 653.691 1104.93 761.887 1104.93 761.887 C 1294.23 618.4219999999999 1195.69 432.1019999999999 1034.19 313.51599999999996" stroke-linecap="round" />
</g>
</g>
</g>
<g transform="matrix(1.9211538461538462 0 0 1.9211538461538462 633.1390687833608 481.0288900225454)" id="text-logo"  >
<g style=""  paint-order="stroke"   >
		<g transform="matrix(1 0 0 1 0 0)" id="text-logo-path-0"  >
<path style="stroke: none; stroke-width: 0; stroke-dasharray: none; stroke-linecap: butt; stroke-dashoffset: 0; stroke-linejoin: miter; stroke-miterlimit: 4; fill: rgb(255,99,71); fill-rule: nonzero; opacity: 1;"  paint-order="stroke"  transform=" translate(-82.465, 22.4)" d="M 2.56 -44.8 L 2.56 0 L 9.6 0 L 9.6 -19.52 L 20.67 -19.52 L 20.67 0 L 27.71 0 L 27.71 -44.8 L 20.67 -44.8 L 20.67 -26.56 L 9.6 -26.56 L 9.6 -44.8 Z M 34.18 -44.8 L 34.18 0 L 55.3 0 L 55.3 -7.04 L 41.22 -7.04 L 41.22 -19.52 L 54.02 -19.52 L 54.02 -26.56 L 41.22 -26.56 L 41.22 -37.76 L 55.3 -37.76 L 55.3 -44.8 Z M 67.2 -44.8 L 59.52 0 L 66.56 0 L 67.33 -4.48 L 76.86 -4.48 L 77.63 0 L 84.67 0 L 76.99 -44.8 Z M 68.54 -11.52 L 72.13 -32.32 L 75.65 -11.52 Z M 90.05 -44.8 L 90.05 0 L 111.17 0 L 111.17 -7.04 L 97.09 -7.04 L 97.09 -44.8 Z M 132.74 -44.8 L 107.78 -44.8 L 107.78 -37.76 L 116.74 -37.76 L 116.74 0 L 123.78 0 L 123.78 -37.76 L 132.74 -37.76 Z M 137.22 -44.8 L 137.22 0 L 144.26 0 L 144.26 -19.52 L 155.33 -19.52 L 155.33 0 L 162.37 0 L 162.37 -44.8 L 155.33 -44.8 L 155.33 -26.56 L 144.26 -26.56 L 144.26 -44.8 Z" stroke-linecap="round" />
</g>
</g>
</g>
<g transform="matrix(1.9211538461538462 0 0 1.9211538461538462 695.139212687637 586.4323810225454)" id="tagline-dc0bff85-bf8e-4263-95d8-c5ed895c82cb-logo"  >
<g style=""  paint-order="stroke"   >
		<g transform="matrix(1 0 0 1 0 0)" id="tagline-dc0bff85-bf8e-4263-95d8-c5ed895c82cb-logo-path-0"  >
<path style="stroke: none; stroke-width: 0; stroke-dasharray: none; stroke-linecap: butt; stroke-dashoffset: 0; stroke-linejoin: miter; stroke-miterlimit: 4; fill: rgb(0,0,0); fill-rule: nonzero; opacity: 1;"  paint-order="stroke"  transform=" translate(-117.75, 6.449999999999999)" d="M 11.56 -3.52 L 11.56 -3.52 Q 11.56 -0.73 12.81 -0.73 L 12.81 -0.73 Q 13.77 -0.73 14.76 -2.41 Q 15.75 -4.1 16.39 -6.52 Q 17.04 -8.94 17.08 -11.11 L 17.08 -11.11 Q 16.06 -11.94 15.23 -13.27 Q 14.39 -14.6 14.39 -14.99 Q 14.39 -15.37 14.75 -15.76 Q 15.1 -16.14 15.5 -16.14 L 15.5 -16.14 Q 16.37 -16.14 17.02 -14.85 Q 17.68 -13.56 17.74 -11.73 L 17.74 -11.73 Q 18.51 -11.07 19.07 -11.07 Q 19.64 -11.07 19.8 -11.42 L 19.8 -11.42 Q 20.05 -11.42 20.05 -11.11 L 20.05 -11.11 Q 20.05 -10.52 19.41 -10.34 L 19.41 -10.34 L 19.03 -10.3 Q 18.39 -10.3 17.74 -10.67 L 17.74 -10.67 Q 17.62 -8.3 16.93 -5.84 Q 16.24 -3.39 15.12 -1.7 Q 14 0 12.81 0 L 12.81 0 Q 11.15 0 10.5 -1.62 L 10.5 -1.62 Q 9.98 -2.93 9.98 -4.76 L 9.98 -4.76 Q 9.98 -5.24 10.03 -5.74 L 10.03 -5.74 Q 6.05 1.52 3.68 1.52 L 3.68 1.52 Q 2.66 1.52 2.66 0.58 L 2.66 0.58 Q 2.66 0.54 2.66 0.48 L 2.66 0.48 Q 5.14 -6.22 5.14 -10.82 L 5.14 -10.82 Q 5.14 -14.37 3.1 -14.37 L 3.1 -14.37 Q 1.81 -14.37 1.29 -13.27 L 1.29 -13.27 Q 1.12 -12.92 1.12 -12.67 Q 1.12 -12.42 1.27 -12.42 L 1.27 -12.42 Q 1.23 -12.13 0.79 -12.13 Q 0.35 -12.13 0.35 -12.69 L 0.35 -12.69 Q 0.35 -13.54 1.22 -14.21 Q 2.08 -14.87 3.35 -14.87 L 3.35 -14.87 Q 6.49 -14.87 6.49 -10.07 L 6.49 -10.07 Q 6.49 -8.28 6.07 -6.06 Q 5.66 -3.85 5.38 -2.9 Q 5.1 -1.96 4.37 0.37 L 4.37 0.37 Q 4.31 0.6 4.47 0.6 L 4.47 0.6 Q 4.62 0.58 4.83 0.42 L 4.83 0.42 Q 6.28 -0.85 7.7 -3.12 L 7.7 -3.12 Q 9.73 -6.47 10.69 -9.26 L 10.69 -9.26 Q 11.71 -12.42 12.65 -12.42 L 12.65 -12.42 Q 13.06 -12.42 13.06 -11.98 L 13.06 -11.98 Q 12.56 -10.4 11.81 -6.2 L 11.81 -6.2 Q 11.56 -4.72 11.56 -3.52 Z M 15.64 -15.5 L 15.64 -15.5 Q 15.56 -15.45 15.56 -15.31 Q 15.56 -15.16 15.63 -14.87 Q 15.7 -14.58 16.12 -13.83 Q 16.54 -13.08 17.04 -12.48 L 17.04 -12.48 Q 16.89 -13.77 16.46 -14.63 Q 16.04 -15.5 15.64 -15.5 Z M 33.1 -6.28 L 33.1 -6.28 Q 34.12 -6.28 34.43 -4.93 L 34.43 -4.93 Q 34.56 -4.43 34.56 -3.89 L 34.56 -3.89 Q 34.56 -2.62 33.91 -1.1 L 33.91 -1.1 Q 32.79 1.52 30.52 2.58 L 30.52 2.58 Q 29.28 3.16 27.84 3.16 L 27.84 3.16 Q 24.76 3.16 23.64 0.92 L 23.64 0.92 Q 23.12 -0.12 23.12 -1.31 Q 23.12 -2.5 23.56 -3.79 L 23.56 -3.79 Q 24.51 -6.61 26.97 -8.4 L 26.97 -8.4 Q 28.49 -9.48 30.32 -9.9 L 30.32 -9.9 Q 28.65 -10.5 28.65 -11.98 Q 28.65 -13.46 30.13 -14.78 Q 31.61 -16.1 33.85 -16.1 L 33.85 -16.1 Q 34.23 -16.1 34.41 -15.81 Q 34.6 -15.52 34.58 -15.23 L 34.58 -15.23 L 34.58 -14.96 Q 34.41 -15.04 33.87 -15.04 L 33.87 -15.04 Q 31.98 -15.04 30.69 -13.71 L 30.69 -13.71 Q 29.78 -12.77 29.78 -11.86 L 29.78 -11.86 Q 29.78 -10.13 32.38 -10.13 L 32.38 -10.13 Q 32.6 -10.13 32.76 -9.99 Q 32.92 -9.86 33.02 -9.59 L 33.02 -9.59 Q 29.42 -9.59 26.99 -6.82 L 26.99 -6.82 Q 24.7 -4.24 24.7 -1.08 L 24.7 -1.08 Q 24.7 0.71 25.74 1.68 L 25.74 1.68 Q 26.55 2.48 27.86 2.48 L 27.86 2.48 Q 30.82 2.48 32.4 -0.02 L 32.4 -0.02 Q 33.44 -1.64 33.44 -3.43 L 33.44 -3.43 Q 33.44 -5.39 32.46 -5.74 L 32.46 -5.74 Q 32.29 -5.8 32.1 -5.8 L 32.1 -5.8 Q 32.38 -6.28 33.1 -6.28 Z M 35.31 -11.4 L 35.31 -11.4 Q 35.31 -11.29 35.12 -11.29 Q 34.93 -11.29 34.76 -11.38 Q 34.58 -11.46 34.58 -11.61 L 34.58 -11.61 Q 34.58 -13.73 35.06 -15.03 Q 35.54 -16.33 36.33 -16.33 L 36.33 -16.33 Q 36.54 -16.33 36.68 -16.17 Q 36.83 -16.02 36.83 -15.79 L 36.83 -15.79 Q 35.87 -14.83 35.47 -13 L 35.47 -13 Q 35.31 -12.23 35.31 -11.4 Z M 51.29 -15.14 L 51.29 -15.14 Q 50.36 -15.14 49.74 -13.88 Q 49.13 -12.63 48.74 -10.62 Q 48.36 -8.61 47.95 -6.47 Q 47.55 -4.33 46.74 -2.22 Q 45.93 -0.1 44.76 1.04 L 44.76 1.04 Q 45.49 1.33 46.92 1.92 Q 48.36 2.52 49.21 2.85 L 49.21 2.85 Q 51.56 3.76 52.73 3.76 L 52.73 3.76 Q 53.87 3.76 54.48 3.04 L 54.48 3.04 Q 54.62 2.85 54.7 2.62 L 54.7 2.62 Q 55.04 2.62 55.04 3.12 L 55.04 3.12 Q 55.04 3.97 54.26 4.48 Q 53.48 4.99 52.5 4.99 Q 51.52 4.99 50.29 4.61 Q 49.07 4.22 48.32 3.89 Q 47.57 3.56 45.96 2.71 Q 44.35 1.87 43.95 1.68 L 43.95 1.68 Q 42.81 2.43 41.17 2.43 Q 39.54 2.43 39.04 1.52 L 39.04 1.52 Q 38.9 1.27 38.9 0.97 Q 38.9 0.67 39.29 0.3 Q 39.69 -0.06 40.68 -0.06 Q 41.68 -0.06 43.83 0.71 L 43.83 0.71 Q 45.49 -1.16 46.49 -6.95 L 46.49 -6.95 Q 46.86 -9.19 47.32 -11.3 Q 47.78 -13.42 48.64 -14.76 Q 49.5 -16.1 50.84 -16.1 L 50.84 -16.1 Q 51.42 -16.1 51.72 -15.81 Q 52.02 -15.52 52.02 -15.23 L 52.02 -15.23 L 52.04 -14.93 Q 51.83 -15.14 51.29 -15.14 Z M 52.54 -10.69 L 52.54 -10.69 Q 52.54 -10.61 52.36 -10.59 Q 52.19 -10.57 52 -10.65 Q 51.81 -10.73 51.81 -10.88 L 51.81 -10.88 Q 51.81 -13 52.29 -14.3 Q 52.77 -15.6 53.56 -15.6 L 53.56 -15.6 Q 53.77 -15.6 53.91 -15.45 Q 54.06 -15.31 54.06 -15.06 L 54.06 -15.06 Q 53.1 -14.1 52.71 -12.27 L 52.71 -12.27 Q 52.54 -11.52 52.54 -10.69 Z M 39.48 1.08 L 39.48 1.08 Q 39.48 1.46 40.01 1.67 Q 40.54 1.89 41.41 1.89 Q 42.29 1.89 43.16 1.29 L 43.16 1.29 Q 41.33 0.46 40.29 0.46 L 40.29 0.46 Q 39.64 0.46 39.5 0.92 L 39.5 0.92 Q 39.48 1 39.48 1.08 Z M 67.24 -15.14 L 67.24 -15.14 Q 66.3 -15.14 65.69 -13.88 Q 65.07 -12.63 64.69 -10.62 Q 64.3 -8.61 63.9 -6.47 Q 63.49 -4.33 62.68 -2.22 Q 61.87 -0.1 60.7 1.04 L 60.7 1.04 Q 61.43 1.33 62.87 1.92 Q 64.3 2.52 65.16 2.85 L 65.16 2.85 Q 67.51 3.76 68.67 3.76 L 68.67 3.76 Q 69.82 3.76 70.42 3.04 L 70.42 3.04 Q 70.56 2.85 70.65 2.62 L 70.65 2.62 Q 70.98 2.62 70.98 3.12 L 70.98 3.12 Q 70.98 3.97 70.2 4.48 Q 69.42 4.99 68.44 4.99 Q 67.46 4.99 66.24 4.61 Q 65.01 4.22 64.26 3.89 Q 63.51 3.56 61.9 2.71 Q 60.29 1.87 59.89 1.68 L 59.89 1.68 Q 58.75 2.43 57.12 2.43 Q 55.48 2.43 54.98 1.52 L 54.98 1.52 Q 54.84 1.27 54.84 0.97 Q 54.84 0.67 55.23 0.3 Q 55.63 -0.06 56.63 -0.06 Q 57.63 -0.06 59.77 0.71 L 59.77 0.71 Q 61.43 -1.16 62.43 -6.95 L 62.43 -6.95 Q 62.81 -9.19 63.26 -11.3 Q 63.72 -13.42 64.58 -14.76 Q 65.45 -16.1 66.78 -16.1 L 66.78 -16.1 Q 67.36 -16.1 67.66 -15.81 Q 67.96 -15.52 67.96 -15.23 L 67.96 -15.23 L 67.98 -14.93 Q 67.78 -15.14 67.24 -15.14 Z M 68.48 -10.69 L 68.48 -10.69 Q 68.48 -10.61 68.31 -10.59 Q 68.13 -10.57 67.94 -10.65 Q 67.76 -10.73 67.76 -10.88 L 67.76 -10.88 Q 67.76 -13 68.23 -14.3 Q 68.71 -15.6 69.5 -15.6 L 69.5 -15.6 Q 69.71 -15.6 69.86 -15.45 Q 70 -15.31 70 -15.06 L 70 -15.06 Q 69.05 -14.1 68.65 -12.27 L 68.65 -12.27 Q 68.48 -11.52 68.48 -10.69 Z M 55.42 1.08 L 55.42 1.08 Q 55.42 1.46 55.95 1.67 Q 56.48 1.89 57.36 1.89 Q 58.23 1.89 59.1 1.29 L 59.1 1.29 Q 57.27 0.46 56.23 0.46 L 56.23 0.46 Q 55.59 0.46 55.44 0.92 L 55.44 0.92 Q 55.42 1 55.42 1.08 Z M 82.99 -0.54 L 82.99 -0.54 Q 82.99 2.35 84.28 2.35 L 84.28 2.35 Q 85.07 2.35 85.7 1.12 L 85.7 1.12 Q 85.8 0.92 86.05 1 L 86.05 1 Q 86.17 1.04 86.11 1.18 Q 86.05 1.31 85.95 1.51 Q 85.84 1.71 85.58 2.11 Q 85.32 2.52 84.94 2.78 Q 84.55 3.04 84.14 3.04 L 84.14 3.04 Q 81.62 3.04 81.62 -0.94 L 81.62 -0.94 Q 81.62 -5.03 84.3 -13.69 L 84.3 -13.69 L 84.64 -14.75 Q 84.68 -14.91 84.54 -14.91 Q 84.41 -14.91 84.28 -14.81 L 84.28 -14.81 Q 83.12 -13.79 81.8 -11.8 Q 80.48 -9.82 79.37 -7.61 L 79.37 -7.61 Q 77.33 -3.58 76.42 -1.32 Q 75.5 0.94 74.9 0.94 L 74.9 0.94 Q 74.46 0.94 74.46 0.48 L 74.46 0.48 L 74.46 0.44 Q 74.71 -0.12 75.42 -2.66 L 75.42 -2.66 Q 76.67 -7.09 76.84 -10.57 L 76.84 -10.57 Q 76.86 -10.82 76.86 -11.02 L 76.86 -11.02 Q 76.86 -12.38 76.38 -13.37 Q 75.9 -14.37 74.69 -14.37 Q 73.49 -14.37 72.97 -13.27 L 72.97 -13.27 Q 72.8 -12.92 72.8 -12.67 Q 72.8 -12.42 72.95 -12.42 L 72.95 -12.42 Q 72.9 -12.13 72.47 -12.13 Q 72.03 -12.13 72.03 -12.69 L 72.03 -12.69 Q 72.03 -13.54 72.89 -14.21 Q 73.76 -14.87 75.03 -14.87 L 75.03 -14.87 Q 78.04 -14.87 78.04 -9.38 L 78.04 -9.38 Q 78.04 -8.2 77.83 -6.97 L 77.83 -6.97 L 78.02 -6.97 Q 82.85 -16.14 85.49 -16.14 L 85.49 -16.14 Q 86.42 -16.14 86.42 -15.1 L 86.42 -15.1 Q 85.78 -13.5 84.99 -10.73 L 84.99 -10.73 Q 82.99 -3.91 82.99 -0.54 Z M 100.14 -6.28 L 100.14 -6.28 Q 101.16 -6.28 101.47 -4.93 L 101.47 -4.93 Q 101.6 -4.43 101.6 -3.89 L 101.6 -3.89 Q 101.6 -2.62 100.95 -1.1 L 100.95 -1.1 Q 99.83 1.52 97.56 2.58 L 97.56 2.58 Q 96.31 3.16 94.88 3.16 L 94.88 3.16 Q 91.8 3.16 90.68 0.92 L 90.68 0.92 Q 90.16 -0.12 90.16 -1.31 Q 90.16 -2.5 90.59 -3.79 L 90.59 -3.79 Q 91.55 -6.61 94.01 -8.4 L 94.01 -8.4 Q 95.52 -9.48 97.35 -9.9 L 97.35 -9.9 Q 95.69 -10.5 95.69 -11.98 Q 95.69 -13.46 97.17 -14.78 Q 98.64 -16.1 100.89 -16.1 L 100.89 -16.1 Q 101.26 -16.1 101.45 -15.81 Q 101.64 -15.52 101.62 -15.23 L 101.62 -15.23 L 101.62 -14.96 Q 101.45 -15.04 100.91 -15.04 L 100.91 -15.04 Q 99.02 -15.04 97.73 -13.71 L 97.73 -13.71 Q 96.81 -12.77 96.81 -11.86 L 96.81 -11.86 Q 96.81 -10.13 99.41 -10.13 L 99.41 -10.13 Q 99.64 -10.13 99.8 -9.99 Q 99.95 -9.86 100.06 -9.59 L 100.06 -9.59 Q 96.46 -9.59 94.03 -6.82 L 94.03 -6.82 Q 91.74 -4.24 91.74 -1.08 L 91.74 -1.08 Q 91.74 0.71 92.78 1.68 L 92.78 1.68 Q 93.59 2.48 94.9 2.48 L 94.9 2.48 Q 97.85 2.48 99.43 -0.02 L 99.43 -0.02 Q 100.47 -1.64 100.47 -3.43 L 100.47 -3.43 Q 100.47 -5.39 99.5 -5.74 L 99.5 -5.74 Q 99.33 -5.8 99.14 -5.8 L 99.14 -5.8 Q 99.41 -6.28 100.14 -6.28 Z M 102.35 -11.4 L 102.35 -11.4 Q 102.35 -11.29 102.16 -11.29 Q 101.97 -11.29 101.8 -11.38 Q 101.62 -11.46 101.62 -11.61 L 101.62 -11.61 Q 101.62 -13.73 102.1 -15.03 Q 102.58 -16.33 103.37 -16.33 L 103.37 -16.33 Q 103.57 -16.33 103.72 -16.17 Q 103.86 -16.02 103.86 -15.79 L 103.86 -15.79 Q 102.91 -14.83 102.51 -13 L 102.51 -13 Q 102.35 -12.23 102.35 -11.4 Z M 108.18 0.85 L 108.18 0.85 Q 108.18 2.39 109.8 2.7 L 109.8 2.7 Q 110.12 2.77 110.51 2.77 L 110.51 2.77 Q 113.11 2.77 114.63 1.09 Q 116.15 -0.58 116.15 -3.12 L 116.15 -3.12 Q 116.15 -4.12 115.78 -4.96 Q 115.42 -5.8 114.88 -6.35 Q 114.34 -6.91 113.7 -7.47 Q 113.07 -8.03 112.53 -8.49 Q 111.99 -8.94 111.62 -9.59 Q 111.26 -10.23 111.26 -10.96 L 111.26 -10.96 Q 111.26 -12.88 112.98 -14.49 Q 114.69 -16.1 116.67 -16.1 L 116.67 -16.1 Q 117.06 -16.1 117.25 -15.81 Q 117.44 -15.52 117.44 -15.23 L 117.44 -15.23 L 117.42 -14.96 Q 117.27 -15.04 116.69 -15.04 L 116.69 -15.04 Q 115.36 -15.04 114.11 -13.79 Q 112.86 -12.54 112.86 -10.9 L 112.86 -10.9 Q 112.86 -10.23 113.22 -9.6 Q 113.59 -8.96 114.13 -8.49 Q 114.67 -8.01 115.29 -7.42 Q 115.92 -6.82 116.46 -6.25 Q 117 -5.68 117.36 -4.86 Q 117.73 -4.04 117.73 -3.12 L 117.73 -3.12 Q 117.73 -0.6 115.65 1.35 Q 113.57 3.31 110.51 3.31 L 110.51 3.31 Q 107.93 3.31 107.24 1.64 L 107.24 1.64 Q 106.7 0.27 107.66 -1.39 Q 108.62 -3.06 110.43 -3.64 L 110.43 -3.64 Q 111.09 -3.85 111.61 -3.85 Q 112.13 -3.85 112.33 -3.67 Q 112.53 -3.49 112.59 -3.12 L 112.59 -3.12 Q 110.64 -3.12 109.24 -1.54 L 109.24 -1.54 Q 108.18 -0.35 108.18 0.85 Z M 117.83 -10.65 L 117.83 -10.65 Q 117.83 -10.55 117.63 -10.55 Q 117.44 -10.55 117.27 -10.63 Q 117.1 -10.71 117.1 -10.86 L 117.1 -10.86 Q 117.1 -12.98 117.58 -14.27 Q 118.06 -15.56 118.85 -15.56 L 118.85 -15.56 Q 119.06 -15.56 119.2 -15.41 Q 119.35 -15.27 119.35 -15.04 L 119.35 -15.04 Q 118.41 -14.1 118 -12.23 L 118 -12.23 Q 117.83 -11.48 117.83 -10.65 Z M 124.52 0.85 L 124.52 0.85 Q 124.52 2.39 126.14 2.7 L 126.14 2.7 Q 126.45 2.77 126.85 2.77 L 126.85 2.77 Q 129.45 2.77 130.97 1.09 Q 132.49 -0.58 132.49 -3.12 L 132.49 -3.12 Q 132.49 -4.12 132.12 -4.96 Q 131.76 -5.8 131.22 -6.35 Q 130.68 -6.91 130.04 -7.47 Q 129.41 -8.03 128.87 -8.49 Q 128.33 -8.94 127.96 -9.59 Q 127.6 -10.23 127.6 -10.96 L 127.6 -10.96 Q 127.6 -12.88 129.31 -14.49 Q 131.03 -16.1 133.01 -16.1 L 133.01 -16.1 Q 133.4 -16.1 133.59 -15.81 Q 133.78 -15.52 133.78 -15.23 L 133.78 -15.23 L 133.75 -14.96 Q 133.61 -15.04 133.03 -15.04 L 133.03 -15.04 Q 131.7 -15.04 130.45 -13.79 Q 129.2 -12.54 129.2 -10.9 L 129.2 -10.9 Q 129.2 -10.23 129.56 -9.6 Q 129.93 -8.96 130.47 -8.49 Q 131.01 -8.01 131.63 -7.42 Q 132.26 -6.82 132.8 -6.25 Q 133.34 -5.68 133.7 -4.86 Q 134.07 -4.04 134.07 -3.12 L 134.07 -3.12 Q 134.07 -0.6 131.99 1.35 Q 129.91 3.31 126.85 3.31 L 126.85 3.31 Q 124.27 3.31 123.58 1.64 L 123.58 1.64 Q 123.04 0.27 124 -1.39 Q 124.96 -3.06 126.77 -3.64 L 126.77 -3.64 Q 127.43 -3.85 127.95 -3.85 Q 128.47 -3.85 128.67 -3.67 Q 128.87 -3.49 128.93 -3.12 L 128.93 -3.12 Q 126.97 -3.12 125.58 -1.54 L 125.58 -1.54 Q 124.52 -0.35 124.52 0.85 Z M 134.17 -10.65 L 134.17 -10.65 Q 134.17 -10.55 133.97 -10.55 Q 133.78 -10.55 133.61 -10.63 Q 133.44 -10.71 133.44 -10.86 L 133.44 -10.86 Q 133.44 -12.98 133.92 -14.27 Q 134.4 -15.56 135.19 -15.56 L 135.19 -15.56 Q 135.4 -15.56 135.54 -15.41 Q 135.69 -15.27 135.69 -15.04 L 135.69 -15.04 Q 134.75 -14.1 134.34 -12.23 L 134.34 -12.23 Q 134.17 -11.48 134.17 -10.65 Z M 152.83 -10.65 L 152.83 -10.65 Q 152.83 -9.11 153.7 -9.01 L 153.7 -9.01 Q 153.64 -8.72 153.22 -8.72 L 153.22 -8.72 Q 152.37 -8.72 152.02 -9.76 L 152.02 -9.76 Q 151.85 -10.23 151.85 -10.93 Q 151.85 -11.63 152.39 -12.6 L 152.39 -12.6 Q 153.62 -14.87 156.84 -15.52 L 156.84 -15.52 Q 157.94 -15.72 159.2 -15.72 Q 160.46 -15.72 161.36 -15.97 Q 162.25 -16.22 162.58 -16.54 L 162.58 -16.54 Q 163.46 -17.35 163.87 -17.35 Q 164.29 -17.35 164.29 -17.1 L 164.29 -17.1 Q 164.29 -17.04 164.29 -16.97 L 164.29 -16.97 Q 164.14 -16.39 163.04 -15.87 L 163.04 -15.87 Q 162.38 -15.58 161.54 -15.41 L 161.54 -15.41 Q 160.86 -15.12 160.4 -13.82 Q 159.94 -12.52 159.44 -10.07 L 159.44 -10.07 Q 160.52 -10.17 161.23 -10.17 L 161.23 -10.17 Q 161.42 -10.17 161.4 -9.94 L 161.4 -9.94 Q 161.31 -9.69 160.96 -9.68 Q 160.61 -9.67 159.32 -9.46 L 159.32 -9.46 Q 158.34 -4.64 157.61 -2.64 L 157.61 -2.64 Q 155.78 2.41 152.39 2.41 L 152.39 2.41 Q 149.96 2.41 149.35 0.19 L 149.35 0.19 Q 149.13 -0.58 149.13 -1.35 L 149.13 -1.35 Q 149.13 -2.81 149.9 -4.26 L 149.9 -4.26 Q 151.06 -6.49 152.95 -6.49 L 152.95 -6.49 Q 153.22 -6.49 153.4 -6.36 Q 153.58 -6.24 153.64 -5.99 L 153.64 -5.99 Q 151.85 -5.99 150.69 -4.14 L 150.69 -4.14 Q 149.77 -2.7 149.77 -1.16 L 149.77 -1.16 Q 149.77 1.08 151.35 1.58 L 151.35 1.58 Q 151.73 1.68 152.33 1.68 Q 152.93 1.68 153.61 1.34 Q 154.28 1 154.84 0.09 Q 155.39 -0.81 155.74 -1.42 Q 156.09 -2.04 156.55 -3.62 L 156.55 -3.62 Q 157.09 -5.55 157.47 -7.21 Q 157.84 -8.86 157.92 -9.19 L 157.92 -9.19 Q 156.76 -9.01 156.17 -9.01 Q 155.57 -9.01 155.49 -9.53 L 155.49 -9.53 Q 155.47 -9.94 155.72 -10 L 155.72 -10 Q 155.82 -9.88 156.37 -9.88 Q 156.93 -9.88 158.11 -9.98 L 158.11 -9.98 Q 158.63 -12.02 159.11 -13.3 Q 159.59 -14.58 160.23 -15.25 L 160.23 -15.25 Q 159.9 -15.23 159.19 -15.23 L 159.19 -15.23 Q 155.2 -15.23 153.6 -12.88 L 153.6 -12.88 Q 152.83 -11.77 152.83 -10.65 Z M 161.98 -6.39 L 161.98 -6.39 Q 161.98 -6.28 161.79 -6.28 Q 161.61 -6.28 161.43 -6.36 Q 161.25 -6.45 161.25 -6.59 L 161.25 -6.59 Q 161.25 -8.72 161.73 -10.02 Q 162.21 -11.32 163 -11.32 L 163 -11.32 Q 163.21 -11.32 163.35 -11.17 Q 163.5 -11.02 163.5 -10.77 L 163.5 -10.77 Q 162.56 -9.84 162.15 -7.99 L 162.15 -7.99 Q 161.98 -7.22 161.98 -6.39 Z M 179.38 -15.85 L 179.38 -15.85 Q 179.71 -15.85 179.77 -15.6 L 179.77 -15.6 L 179.8 -15.52 Q 179.19 -15.52 178.77 -14.75 Q 178.34 -13.98 178.13 -12.72 Q 177.92 -11.46 177.67 -9.85 Q 177.42 -8.24 177.21 -6.55 Q 176.99 -4.87 176.51 -3.26 Q 176.03 -1.64 175.4 -0.38 Q 174.76 0.87 173.64 1.64 Q 172.52 2.41 170.98 2.41 Q 169.44 2.41 168.45 1.5 Q 167.46 0.58 167.32 -0.73 L 167.32 -0.73 Q 167.27 -1.16 167.27 -1.82 Q 167.27 -2.48 167.51 -3.57 Q 167.75 -4.66 168.66 -5.57 Q 169.56 -6.49 170.73 -6.49 L 170.73 -6.49 Q 171.04 -6.49 171.22 -6.3 Q 171.39 -6.12 171.45 -5.74 L 171.45 -5.74 Q 169.58 -5.74 168.5 -3.89 L 168.5 -3.89 Q 167.81 -2.68 167.81 -1.48 L 167.81 -1.48 Q 167.81 -0.83 168.02 -0.17 L 168.02 -0.17 Q 168.6 1.68 170.75 1.68 L 170.75 1.68 Q 171.91 1.68 172.8 0.93 Q 173.68 0.17 174.22 -1.11 Q 174.76 -2.39 175.16 -3.96 Q 175.55 -5.53 175.84 -7.24 Q 176.13 -8.94 176.4 -10.46 L 176.4 -10.46 Q 177.09 -14.08 178.09 -15.2 L 178.09 -15.2 Q 176.47 -14.64 175.15 -13.43 Q 173.83 -12.21 173.83 -10.77 L 173.83 -10.77 Q 173.83 -10.13 174.26 -10.13 L 174.26 -10.13 Q 174.22 -9.84 173.84 -9.84 Q 173.45 -9.84 173.15 -10.15 Q 172.85 -10.46 172.85 -11.04 L 172.85 -11.04 Q 172.85 -12.27 174.06 -13.43 Q 175.28 -14.58 176.79 -15.22 Q 178.3 -15.85 179.38 -15.85 Z M 196.63 -14.19 L 196.63 -14.19 Q 196.63 -15.45 195.61 -15.45 L 195.61 -15.45 Q 194.53 -15.45 193.34 -13.97 Q 192.14 -12.48 191.22 -10.37 Q 190.31 -8.26 189.55 -6.06 Q 188.79 -3.87 188.38 -2.36 Q 187.96 -0.85 187.96 -0.67 L 187.96 -0.67 Q 187.96 -0.4 187.67 -0.4 L 187.67 -0.4 Q 187.04 -0.4 187.04 -2.06 L 187.04 -2.06 Q 187.04 -6.07 187.95 -9.86 Q 188.85 -13.64 189.96 -14.91 L 189.96 -14.91 Q 186.98 -14.5 185.13 -12.81 L 185.13 -12.81 Q 184.07 -11.88 184.07 -10.77 L 184.07 -10.77 Q 184.07 -10.23 184.49 -10.23 L 184.49 -10.23 Q 184.4 -9.94 184.03 -9.94 Q 183.65 -9.94 183.37 -10.23 Q 183.09 -10.52 183.09 -11.04 L 183.09 -11.04 Q 183.09 -12.27 184.58 -13.32 Q 186.07 -14.37 187.79 -14.88 Q 189.52 -15.39 190.73 -15.39 L 190.73 -15.39 Q 191.06 -15.39 191.06 -15.06 L 191.06 -15.06 Q 189.6 -11.69 188.58 -5.66 L 188.58 -5.66 L 188.73 -5.66 Q 189.64 -8.67 190.62 -10.68 Q 191.6 -12.69 192.33 -13.72 Q 193.06 -14.75 193.94 -15.41 Q 194.82 -16.08 195.72 -16.08 L 195.72 -16.08 Q 197.55 -16.08 197.9 -14.5 L 197.9 -14.5 Q 197.98 -14.14 197.98 -13.75 L 197.98 -13.75 Q 197.98 -12.48 197.11 -10.98 L 197.11 -10.98 Q 195.86 -8.84 193.76 -7.99 L 193.76 -7.99 L 192.97 -7.74 Q 193.58 -7.68 194.25 -6.1 Q 194.93 -4.53 195.45 -2.67 Q 195.97 -0.81 196.7 0.73 Q 197.42 2.27 198.13 2.27 L 198.13 2.27 Q 198.69 2.27 198.96 1.87 L 198.96 1.87 Q 199.11 1.87 199.11 1.98 Q 199.11 2.08 198.98 2.27 L 198.98 2.27 Q 198.53 2.89 197.86 2.95 L 197.86 2.95 Q 196.78 2.95 195.77 1.48 Q 194.76 0 194.14 -1.8 Q 193.51 -3.6 192.82 -5.39 Q 192.12 -7.18 191.64 -7.59 L 191.64 -7.59 Q 191.41 -7.59 191.28 -7.73 Q 191.14 -7.86 191.12 -8.15 L 191.12 -8.15 Q 193.33 -8.15 195.07 -10.36 L 195.07 -10.36 Q 196.63 -12.33 196.63 -14.19 Z M 203.17 0.85 L 203.17 0.85 Q 203.17 2.39 204.8 2.7 L 204.8 2.7 Q 205.11 2.77 205.5 2.77 L 205.5 2.77 Q 208.1 2.77 209.62 1.09 Q 211.14 -0.58 211.14 -3.12 L 211.14 -3.12 Q 211.14 -4.12 210.78 -4.96 Q 210.41 -5.8 209.87 -6.35 Q 209.33 -6.91 208.7 -7.47 Q 208.06 -8.03 207.52 -8.49 Q 206.98 -8.94 206.62 -9.59 Q 206.25 -10.23 206.25 -10.96 L 206.25 -10.96 Q 206.25 -12.88 207.97 -14.49 Q 209.68 -16.1 211.66 -16.1 L 211.66 -16.1 Q 212.06 -16.1 212.24 -15.81 Q 212.43 -15.52 212.43 -15.23 L 212.43 -15.23 L 212.41 -14.96 Q 212.26 -15.04 211.68 -15.04 L 211.68 -15.04 Q 210.35 -15.04 209.1 -13.79 Q 207.85 -12.54 207.85 -10.9 L 207.85 -10.9 Q 207.85 -10.23 208.22 -9.6 Q 208.58 -8.96 209.12 -8.49 Q 209.66 -8.01 210.29 -7.42 Q 210.91 -6.82 211.45 -6.25 Q 211.99 -5.68 212.36 -4.86 Q 212.72 -4.04 212.72 -3.12 L 212.72 -3.12 Q 212.72 -0.6 210.64 1.35 Q 208.56 3.31 205.5 3.31 L 205.5 3.31 Q 202.92 3.31 202.24 1.64 L 202.24 1.64 Q 201.7 0.27 202.65 -1.39 Q 203.61 -3.06 205.42 -3.64 L 205.42 -3.64 Q 206.09 -3.85 206.61 -3.85 Q 207.13 -3.85 207.32 -3.67 Q 207.52 -3.49 207.58 -3.12 L 207.58 -3.12 Q 205.63 -3.12 204.24 -1.54 L 204.24 -1.54 Q 203.17 -0.35 203.17 0.85 Z M 212.83 -10.65 L 212.83 -10.65 Q 212.83 -10.55 212.63 -10.55 Q 212.43 -10.55 212.26 -10.63 Q 212.1 -10.71 212.1 -10.86 L 212.1 -10.86 Q 212.1 -12.98 212.58 -14.27 Q 213.05 -15.56 213.84 -15.56 L 213.84 -15.56 Q 214.05 -15.56 214.2 -15.41 Q 214.34 -15.27 214.34 -15.04 L 214.34 -15.04 Q 213.41 -14.1 212.99 -12.23 L 212.99 -12.23 Q 212.83 -11.48 212.83 -10.65 Z M 221.97 -10.63 L 221.97 -10.63 Q 221.97 -9.15 222.84 -9.01 L 222.84 -9.01 Q 222.78 -8.72 222.36 -8.72 L 222.36 -8.72 Q 221.51 -8.72 221.16 -9.73 L 221.16 -9.73 Q 220.99 -10.21 220.99 -10.9 Q 220.99 -11.59 221.53 -12.56 L 221.53 -12.56 Q 222.78 -14.83 226.11 -15.5 L 226.11 -15.5 Q 227.29 -15.72 228.71 -15.72 Q 230.12 -15.72 231.28 -16.06 Q 232.43 -16.39 232.98 -16.81 Q 233.53 -17.22 234.02 -17.56 Q 234.51 -17.89 234.83 -17.89 Q 235.15 -17.89 235.15 -17.6 L 235.15 -17.6 Q 235.15 -16.91 233.8 -16.2 Q 232.45 -15.5 230.29 -15.29 L 230.29 -15.29 Q 229.39 -14.81 228.89 -11.9 L 228.89 -11.9 Q 228.33 -8.55 227.96 -6.43 Q 227.58 -4.31 227.07 -2.8 Q 226.56 -1.29 225.92 -0.14 Q 225.27 1.02 224.22 1.72 Q 223.17 2.41 221.77 2.41 Q 220.37 2.41 219.49 1.5 L 219.49 1.5 Q 218.54 0.5 218.54 -1.21 L 218.54 -1.21 Q 218.54 -4.06 220.05 -5.57 L 220.05 -5.57 Q 220.97 -6.49 222.09 -6.49 L 222.09 -6.49 Q 222.36 -6.49 222.54 -6.36 Q 222.72 -6.24 222.78 -5.99 L 222.78 -5.99 Q 221.01 -5.99 219.91 -4.16 L 219.91 -4.16 Q 219.1 -2.81 219.1 -1.35 L 219.1 -1.35 Q 219.1 1.04 220.74 1.56 L 220.74 1.56 Q 221.11 1.68 221.55 1.68 L 221.55 1.68 Q 222.84 1.68 223.81 0.62 Q 224.78 -0.44 225.28 -2.06 Q 225.79 -3.68 226.26 -5.71 Q 226.73 -7.74 227.04 -9.57 Q 227.35 -11.4 227.88 -12.99 Q 228.42 -14.58 229.1 -15.23 L 229.1 -15.23 L 228.69 -15.23 Q 224.42 -15.23 222.74 -12.83 L 222.74 -12.83 Q 221.97 -11.75 221.97 -10.63 Z" stroke-linecap="round" />
</g>
</g>
</g>
<g transform="matrix(1.9211538461538462 0 0 1.9211538461538462 857.4012095327798 483.71148937807703)" id="tagline-1aa278ca-07ea-450b-ae08-856c32165d28-logo"  >
<g style=""  paint-order="stroke"   >
		<g transform="matrix(1 0 0 1 0 0)" id="tagline-1aa278ca-07ea-450b-ae08-856c32165d28-logo-path-0"  >
<path style="stroke: none; stroke-width: 0; stroke-dasharray: none; stroke-linecap: butt; stroke-dashoffset: 0; stroke-linejoin: miter; stroke-miterlimit: 4; fill: rgb(54,69,79); fill-rule: nonzero; opacity: 1;"  paint-order="stroke"  transform=" translate(-30.109999999999996, 22.4)" d="M 2.56 -44.8 L 2.56 0 L 23.68 0 L 23.68 -7.04 L 9.6 -7.04 L 9.6 -44.8 Z M 41.66 -18.56 L 41.66 0 L 48.7 0 L 48.7 -18.56 L 57.66 -44.8 L 49.98 -44.8 L 45.18 -26.88 L 40.38 -44.8 L 32.7 -44.8 Z" stroke-linecap="round" />
</g>
</g>
</g>
</svg>