<svg width="40" height="40" viewBox="0 0 40 40" fill="none" xmlns="http://www.w3.org/2000/svg">
<path d="M5 31.6663V16.7947C5 16.028 5.25722 15.3875 5.77167 14.873C6.28611 14.3586 6.92611 14.1019 7.69167 14.103H12.5V11.0247C12.5 10.258 12.7572 9.61746 13.2717 9.10301C13.7861 8.58857 14.4267 8.3319 15.1933 8.33301H24.8083C25.575 8.33301 26.2156 8.58968 26.73 9.10301C27.2444 9.61634 27.5011 10.2569 27.5 11.0247V14.1013H32.3083C33.075 14.1013 33.715 14.3586 34.2283 14.873C34.7417 15.3875 34.9989 16.028 35 16.7947V31.6663H5ZM12.3083 23.7163V25.383H10.6417V23.7163H6.66667V29.9997H33.3333V23.7163H29.36V25.383H27.6933V23.7163H12.3083ZM6.66667 16.7963V22.053H10.6417V20.3863H12.3083V22.053H27.6917V20.3863H29.3583V22.053H33.3333V16.7963C33.3333 16.5408 33.2267 16.3058 33.0133 16.0913C32.7989 15.878 32.5633 15.7713 32.3067 15.7713H7.69333C7.43667 15.7713 7.20111 15.878 6.98667 16.0913C6.77222 16.3047 6.66556 16.5391 6.66667 16.7947M14.1667 14.1013H25.8333V11.0247C25.8333 10.7691 25.7267 10.5341 25.5133 10.3197C25.3 10.1052 25.065 9.99857 24.8083 9.99968H15.1917C14.9361 9.99968 14.7011 10.1063 14.4867 10.3197C14.2722 10.533 14.1656 10.7686 14.1667 11.0263V14.1013Z" fill="#082F2F"/>
<path d="M5 31.6663V16.7947C5 16.028 5.25722 15.3875 5.77167 14.873C6.28611 14.3586 6.92611 14.1019 7.69167 14.103H12.5V11.0247C12.5 10.258 12.7572 9.61746 13.2717 9.10301C13.7861 8.58857 14.4267 8.3319 15.1933 8.33301H24.8083C25.575 8.33301 26.2156 8.58968 26.73 9.10301C27.2444 9.61634 27.5011 10.2569 27.5 11.0247V14.1013H32.3083C33.075 14.1013 33.715 14.3586 34.2283 14.873C34.7417 15.3875 34.9989 16.028 35 16.7947V31.6663H5ZM12.3083 23.7163V25.383H10.6417V23.7163H6.66667V29.9997H33.3333V23.7163H29.36V25.383H27.6933V23.7163H12.3083ZM6.66667 16.7963V22.053H10.6417V20.3863H12.3083V22.053H27.6917V20.3863H29.3583V22.053H33.3333V16.7963C33.3333 16.5408 33.2267 16.3058 33.0133 16.0913C32.7989 15.878 32.5633 15.7713 32.3067 15.7713H7.69333C7.43667 15.7713 7.20111 15.878 6.98667 16.0913C6.77222 16.3047 6.66556 16.5391 6.66667 16.7947M14.1667 14.1013H25.8333V11.0247C25.8333 10.7691 25.7267 10.5341 25.5133 10.3197C25.3 10.1052 25.065 9.99857 24.8083 9.99968H15.1917C14.9361 9.99968 14.7011 10.1063 14.4867 10.3197C14.2722 10.533 14.1656 10.7686 14.1667 11.0263V14.1013Z" fill="black" fill-opacity="0.2"/>
</svg>
