<svg width="40" height="40" viewBox="0 0 40 40" fill="none" xmlns="http://www.w3.org/2000/svg">
<path d="M17.0833 12.3605C8.67078 14.6146 10.6266 21.0855 18.4083 27.9588C19.6258 29.0755 20 29.5963 20 31.0755V37.9163C28.5475 37.9163 35.905 31.878 37.5725 23.4946C39.24 15.1113 34.7533 6.71631 26.8566 3.44631C18.96 0.176314 9.85162 2.93798 5.10328 10.0446C2.90419 13.336 1.85697 17.2629 2.12517 21.2122C2.39337 25.1615 3.96189 28.9108 6.58578 31.8746" stroke="#082F2F" stroke-width="2" stroke-linecap="round" stroke-linejoin="round"/>
<path d="M17.0833 12.3605C8.67078 14.6146 10.6266 21.0855 18.4083 27.9588C19.6258 29.0755 20 29.5963 20 31.0755V37.9163C28.5475 37.9163 35.905 31.878 37.5725 23.4946C39.24 15.1113 34.7533 6.71631 26.8566 3.44631C18.96 0.176314 9.85162 2.93798 5.10328 10.0446C2.90419 13.336 1.85697 17.2629 2.12517 21.2122C2.39337 25.1615 3.96189 28.9108 6.58578 31.8746" stroke="black" stroke-opacity="0.2" stroke-width="2" stroke-linecap="round" stroke-linejoin="round"/>
<path d="M22.9168 12.3604C31.3293 14.6145 29.3735 21.0862 21.5918 27.9587" stroke="#082F2F" stroke-width="2" stroke-linecap="round" stroke-linejoin="round"/>
<path d="M22.9168 12.3604C31.3293 14.6145 29.3735 21.0862 21.5918 27.9587" stroke="black" stroke-opacity="0.2" stroke-width="2" stroke-linecap="round" stroke-linejoin="round"/>
<path d="M8.51302 37.9167C10.354 37.9167 11.8464 36.4243 11.8464 34.5833C11.8464 32.7424 10.354 31.25 8.51302 31.25C6.67207 31.25 5.17969 32.7424 5.17969 34.5833C5.17969 36.4243 6.67207 37.9167 8.51302 37.9167Z" stroke="#082F2F" stroke-width="2" stroke-linecap="round" stroke-linejoin="round"/>
<path d="M8.51302 37.9167C10.354 37.9167 11.8464 36.4243 11.8464 34.5833C11.8464 32.7424 10.354 31.25 8.51302 31.25C6.67207 31.25 5.17969 32.7424 5.17969 34.5833C5.17969 36.4243 6.67207 37.9167 8.51302 37.9167Z" stroke="black" stroke-opacity="0.2" stroke-width="2" stroke-linecap="round" stroke-linejoin="round"/>
</svg>
